<svg version="1.1" id="Layer_1" xmlns="http://www.w3.org/2000/svg" x="0" y="0" viewBox="0 0 480 640" style="enable-background:new 0 0 480 640" xml:space="preserve"><style>.boy-st0{fill:#fcd0a3}.boy-st1{fill:#19120f}.boy-st2{fill:#d6c7ad}.boy-st3{fill:#352420}.boy-st4{fill:#722c01}</style><path class="boy-st0" d="m192.5 415.5-26.8 8.9-43.5 39.6s6.4 13.9 1.5 11.6c-4.9-2.3-4.5-5.7-4.5-5.7s-6.3 12.7-8.5 11.9c-2.2-.8-1.5-4.2 1-8.5 0 0-5.2 8-8.1 5.9 0 0-2.7-1.2 3.6-8.7 0 0-6.8 6.7-8.9 5.3 0 0-1.1-2.7 4.3-7.5 0 0-4.6 2.3-6.5 1.5 0 0-2.3-2.3 4.8-4.9 0 0 5-6 11.8-10.4l40.7-53.1 28.3-9.6 10.8 23.7zM324.6 388l26.9 8.6 58.4-6.3s3-15 5.6-10.3c2.6 4.7.3 7.2.3 7.2s12.6-6.5 13.9-4.6c1.3 2-1.2 4.3-5.8 6.3 0 0 8.9-3.4 10.1 0 0 0 1.5 2.6-8 4.9 0 0 9.4-1.4 10.3 1 0 0-.7 2.8-7.9 3.5 0 0 5.1.8 6.1 2.6 0 0 .5 3.2-6.8 1.1 0 0-7.6 1.9-15.6 1.4l-64.2 18.8-28.5-8.9 5.2-25.3zM189.5 524c4.1 19.7 8.2 41 10.1 62.2 2.1 7.6 8.5 22.8 1.7 30.3-9 8.9-33.3 2.5-38 17.5 22.1 6.4 51 3.9 73.1 4.2 9.5-36.1-3.2-74.2 6.2-110.3-13.2-4.8-55.3-10-53.1-6.9"/><path class="boy-st1" d="M201.7 616c-.1.2-.2.3-.4.5-9 8.9-33.3 2.5-38 17.5 22.1 6.4 51 3.9 73.1 4.2 1.8-6.9 2.9-9 3.4-16v-.3c-13.4.9-27.7-1.1-38.1-5.9z"/><path class="boy-st0" d="M313 526c-4.7 19.6-9.5 40.7-12.1 61.8-2.3 7.5-9.2 22.5-2.7 30.2 8.7 9.2 33.2 3.6 37.4 18.8-22.3 5.7-51.1 2.2-73.2 1.8-8.3-36.4 5.6-74-2.6-110.4 13.4-4.3 55.6-8.2 53.3-5.2"/><path class="boy-st1" d="M297.8 617.5c.1.2.2.3.3.5 8.7 9.2 33.2 3.6 37.4 18.8-22.3 5.7-51.1 2.2-73.2 1.8-1.6-7-2.6-9.1-2.8-16.1v-.3c13.4 1.4 27.7-.1 38.3-4.7z"/><path class="boy-st2" d="M320.3 396.3c-6.3-41.4-65.3-47.4-107.1-28.4h1.1c-41.5 28.2-37.2 93.8-39.9 128.6-2.7 40.8 13.8 45.6 65.7 44.9 45.7-.8 82.9 5.9 89.8-33.3 4.6-30.1-4.8-80.2-9.6-111.8z"/><path class="boy-st0" d="m240.1 349-.1.5c-.2 11.1-4.5 70.9 23.6 49.2 14.7-13.1 14.6-74.6-23.5-49.7z"/><path class="boy-st3" d="M240.1 541.5c45.7-.8 82.9 5.9 89.8-33.3 2.8-17.9 2.4-43.1-.5-67.1-7.9-2.9-21.4-8.2-22.9-10.6-1.3-2-4-37.7 1.8-57.9-9.1-4.6-9.1-2.9-20.9-7.3-3.9 11.7-10.8 35.9-9.6 59.3 0 0-33.4 5-40 1.6 0 0-1.7-45-9.1-63.5-5.3 1.4-10.4 3.1-15.4 5.4h1.1c-1.9 1.3-3.7 2.7-5.4 4.2 2.3 15.4 6.6 49.7 2.2 59L177.5 447c-1.9 18.6-2 36.4-3 49.7-2.8 40.6 13.7 45.4 65.6 44.8z"/><path class="boy-st3" d="m211 431.1-9.2 4.3 117.9 1.9c-6.3-2.6-12.3-5.3-13.3-6.9-1.3-2-4.2-38 1.5-58.2-4.9-5.6-9.9-9.2-20.1-10.6-3.9 11.7-11.4 39.5-10.2 62.8 0 0-33.4 5-40 1.6 0 0-1.7-45-9.1-63.5-5.3 1.4-10.4 3.1-15.4 5.4h1.1c-1.9 1.3-3.7 2.7-5.4 4.2 2.3 15.4 6.6 49.7 2.2 59zM176.2 515.2l22.7 89 46.2 2.7 7.9-70.2.8 69.4 49.1-.2 25.1-91.1z"/><path class="boy-st4" d="M233.7 462.2c-.1 9.2-7.1 16.5-15.4 16.4-8.4-.1-15.1-7.7-14.9-16.9.1-9.2 7.1-16.5 15.4-16.4 8.4.1 15.1 7.7 14.9 16.9zM305 463.3c-.1 9.2-7.1 16.5-15.4 16.4-8.4-.1-15.1-7.7-14.9-16.9.2-9.2 7.1-16.5 15.4-16.4 8.4.2 15.1 7.8 14.9 16.9z"/><path class="boy-st2" d="m208.9 372.1-41.3 23.5 6.3 26.1 25.1-1.5zM315.7 413.4l-7.8-41.2 38 22.4-9.1 24.9z"/><path class="boy-st0" d="M91.4 190.1s21.9 73 20 114.5c0 0 14 56.7 49.7 64.2 0 0 143.3 46.2 218.5-41.4 0 0 20-21.6-2.6-124.6 0 0-7.8-85.4-20.4-90.2-12.6-4.8-181.7-26-239.2 36.4 0 0-31.6 29.4-26 41.1z"/><path class="boy-st4" d="M305.8 122.1s-44.1 90.4-93.6 84.9c0 0 4-32.2 13.3-40.1 0 0-27 29.5-30.9 53.7 0 0-15.9-15.2-21.3-36.1 0 0-6.3 35.6.5 41.5 0 0-24.2-1.5-35.4-23.6 0 0-20.2 38.9-28.4 46.8 0 0 5.3 28.9 1.8 31.2-3.5 2.3-2.4 8-3.5 2.3-1.1-5.8-29.5-101.9-44.3-110.2 0 0 62.3-141.9 209.3-111.9 0 0-7.7-25.5-27.2-30.4 0 0 33.4-.6 39.9 24.9 0 0-.4-47.3 27.4-54.9 0 0-22.6 42.3-14.8 62 0 0 14.2-25.1 44.2-23.5 0 0-29.1 15.7-24.7 28.4 0 0 43.6 14.5 54.8 32l8.4 121.2s-16.9-23.3-17.7-42.9c.1-.2-44.7-13.6-57.8-55.3z"/><path class="boy-st0" d="M375.5 228.1s10.8-22.9 22-7.7c0 0 18.1 18.7 3.9 46.2 0 0-13.1 22.8-21 16.9l-4.9-55.4zM113.1 271.1s-12.4-19.8-13.8-1.4c0 0-5 23 12.1 34.8 0 0 11.8-14.8 1.7-33.4z"/><path d="M199.9 322.1s66.3 32.2 94.8-19.2c0 0 2.9 35.8-44.4 38.5 0 0-27.7 6.4-50.4-19.3z" style="fill:#95060a"/><path class="boy-st1" d="M212.3 273.3c-.1 7.3-5.6 13.2-12.3 13.1-6.7-.1-12-6.1-11.9-13.5.1-7.3 5.6-13.2 12.3-13.1 6.7.2 12 6.2 11.9 13.5zM305.4 265.1c-.1 7.3-5.6 13.2-12.3 13.1-6.7-.1-12-6.1-11.9-13.5.1-7.3 5.6-13.2 12.3-13.1 6.7.1 12 6.1 11.9 13.5z"/><path d="M261.5 292c-.1 3.2-5.3 5.7-11.6 5.6-6.4-.1-11.5-2.8-11.4-5.9.1-3.2 5.3-5.7 11.6-5.6 6.4 0 11.5 2.7 11.4 5.9z" style="fill:#f58569"/><path class="boy-st4" d="M277.6 224.2s27.8-5.3 44.8 10l3.6-9.2s-25.2-9.6-48.3-7.7l-.1 6.9zM207.6 229.6s-28.3-.5-42.5 17.4l-5.1-8.4s23.2-13.8 46.3-15.8l1.3 6.8z"/></svg>