<?xml version="1.0" encoding="utf-8"?>
<!-- Generator: Adobe Illustrator 25.1.0, SVG Export Plug-In . SVG Version: 6.00 Build 0)  -->
<svg version="1.1" xmlns="http://www.w3.org/2000/svg" xmlns:xlink="http://www.w3.org/1999/xlink" x="0px" y="0px"
	 viewBox="0 0 178 200" style="enable-background:new 0 0 178 200;" xml:space="preserve">
<style type="text/css">
	.cat-st0{fill:#232628;}
	.cat-st1{fill:#FFFFFF;}
	.cat-st2{opacity:0.2;fill:#000000;}
	.cat-st3{fill:none;stroke:#232628;stroke-width:2;stroke-linecap:round;stroke-linejoin:round;stroke-miterlimit:10;}
</style>
<g id="Layer_1">
	<g>
		<g>
			<path class="cat-st0" d="M168.2,125.2c14.6,59.5-3.8,70.8-81.7,70.5c-86.4-0.3-89.6-19.8-76.9-69C24,70.8,32.7,12,86.5,10.9
				C142.5,9.7,155.5,73.4,168.2,125.2z"/>
		</g>
		<path class="cat-st1" d="M88.1,116.8c-32.8-0.1-59.4,18.1-59.5,40.7c-0.1,15.4,12.3,28.9,30.5,36c7.6,0.5,16,0.7,25.4,0.8
			c12.3,0,23.2-0.2,32.7-0.8c17.9-7,30.1-20.2,30.1-35.5C147.4,135.4,120.9,116.9,88.1,116.8z"/>
		<path class="cat-st2" d="M75.5,90.7c0,0,19.4,3.2,31.7,0.1C107.1,90.8,87.2,102,75.5,90.7z"/>
		<path class="cat-st2" d="M100.8,191.7c-86.4-0.3-89.6-19.8-76.9-69c12.1-47,20.2-96,54.5-111.2C31.8,18.3,23.2,73.8,9.6,126.7
			c-12.7,49.2-9.5,68.7,76.9,69c30.6,0.1,52-1.5,65.8-7.2C139.3,191,122.4,191.8,100.8,191.7z"/>
		<path class="cat-st0" d="M86.7,197.9l-0.1,0C40.7,197.7,18,192.3,8,179.4c-8.9-11.5-6.9-28.2-0.4-53.2c1.4-5.4,2.7-10.9,4.1-16.3
			c6.4-25.8,12.4-50.2,23.1-68.9C46.9,19.8,63.8,9.2,86.5,8.8c0.6,0,1.2,0,1.9,0c24.1,0.1,42.4,12,56,36.3
			c11.7,20.9,18.1,47.4,24.4,73c0.5,2.3,1.1,4.5,1.6,6.7c6.9,27.9,6.2,44.4-2.3,55.2C156.1,195.1,128.1,198,86.7,197.9z M88.3,13
			c-0.6,0-1.2,0-1.8,0c-47,1-58.6,48.1-70.9,98c-1.3,5.3-2.7,10.9-4.1,16.3c-6.1,23.7-8.1,39.4-0.3,49.5c9,11.6,31.5,16.6,75.2,16.8
			l0.1,0c40.1,0.1,67.1-2.5,78-16.3c7.6-9.6,8-25.1,1.5-51.6c-0.5-2.2-1.1-4.5-1.6-6.7C152.4,69.4,138.7,13.2,88.3,13z"/>
		<path class="cat-st0" d="M39.6,45.4c0,0-14.3-24.5-5.7-38.8c0,0,9.1-13.2,28.6,12.3"/>
		<path class="cat-st2" d="M40.7,3.9c0,0,0.2-0.3,0.6-0.7c-5-0.1-7.4,3.4-7.4,3.4c-8.6,14.3,5.7,38.8,5.7,38.8l5.1-5.9
			C41.2,32.4,34.1,15.1,40.7,3.9z"/>
		<path class="cat-st0" d="M37.8,46.5c-0.6-1-14.8-25.7-5.7-41l0.1-0.1c0.1-0.2,2.9-4.2,8.7-4.3c7-0.2,14.9,5.4,23.4,16.6l-3.4,2.6
			C51.3,7.7,44.8,5.2,41,5.3c-3.3,0.1-5,2.2-5.2,2.5c-7.7,13.1,5.6,36.3,5.8,36.6L37.8,46.5z"/>
		<path class="cat-st1" d="M57.1,25.4c-10.7-14-15.7-6.7-15.7-6.7c-4.7,7.8,3.1,21.2,3.1,21.2L57.1,25.4z"/>
		<g>
			<path class="cat-st0" d="M137.2,45.8c0,0,14.4-24.4,6-38.8c0,0-9-13.3-28.7,12.1"/>
			<path class="cat-st0" d="M139,46.8l-3.7-2.2c0.1-0.2,13.6-23.4,6-36.5c-0.2-0.3-2-2.4-5.3-2.5c-3.8-0.1-10.3,2.4-19.9,14.8l-3.4-2.6
				c8.6-11.1,16.6-16.7,23.5-16.4c5.7,0.2,8.5,4.2,8.6,4.4l0.1,0.1C154,21.2,139.6,45.8,139,46.8z"/>
		</g>
		<path class="cat-st1" d="M131.5,40.4c0,0,7.9-13.3,3.3-21.2c0,0-4.9-7.3-15.7,6.6"/>
		<path class="cat-st0" d="M68.1,28c3.5,9.1,7.4,7.2,8.6-4.2c0.4-3.6,0.5-7.8,0.3-12c-4.4,0.7-8.4,1.9-12.1,3.5
			C65.7,20.1,66.8,24.6,68.1,28z"/>
		<path class="cat-st0" d="M109.9,27.2c1.7-3,3.2-6.5,4.6-10.2c-3.6-1.9-7.5-3.3-11.7-4.4c-1.5,5.6-2.4,10.9-2.6,15.1
			C100,37.4,104.3,37.2,109.9,27.2z"/>
		<path class="cat-st0" d="M94.5,27c1.3-4.6,2.3-9.9,2.9-15.5c-3.4-0.5-7-0.7-10.8-0.6c-1.7,0-3.4,0.1-5,0.3c-0.2,7.2,0.2,14.1,1.3,19.3
			C85.4,42.3,90.6,40.8,94.5,27z"/>
		<path class="cat-st0" d="M19.2,173.4c0,0,0.7,19.8,13.6,23.6c0,0,8.3,5,9.6-16.3"/>
		<path class="cat-st2" d="M37.3,192.5c-8.2-2.4-11.5-11.3-12.8-17.4l-5.4-1.7c0,0,0.7,19.8,13.6,23.6c0,0,4.4,2.6,7.3-4.1
			C38.5,193.2,37.3,192.5,37.3,192.5z"/>
		<path class="cat-st0" d="M34.8,199.6c-1.2,0-2.2-0.3-2.8-0.7c-14-4.4-14.9-24.7-14.9-25.5l4.2-0.1c0,0.2,0.8,18.3,12.1,21.7l0.3,0.1
			l0.2,0.1c0.1,0,1,0.5,2-0.1c1.1-0.6,3.7-3.3,4.4-14.5l4.2,0.2c-0.6,10.1-2.8,16-6.7,18.1C36.7,199.4,35.7,199.6,34.8,199.6z"/>
		<path class="cat-st0" d="M160.3,173.9c0,0-0.8,19.8-13.8,23.5c0,0-8.4,4.9-9.4-16.4"/>
		<path class="cat-st2" d="M148.6,191.6c0,0-7,4.1-9-11.4l-2.5,0.8c1.1,21.3,9.4,16.4,9.4,16.4c7.5-2.2,10.9-9.7,12.5-15.6
			C156.9,186.1,153.7,190.1,148.6,191.6z"/>
		<path class="cat-st0" d="M144.5,200c-0.9,0-2-0.2-3-0.8c-3.9-2.1-6-8-6.5-18.1l4.2-0.2c0.6,11.4,3.2,14,4.3,14.6
			c1,0.5,1.9,0.1,1.9,0.1l0.2-0.1l0.3-0.1c11.3-3.3,12.2-21.4,12.2-21.6l4.2,0.2c0,0.9-1.1,21.1-15.1,25.4
			C146.6,199.7,145.6,200,144.5,200z"/>
		<path class="cat-st0" d="M155,75.9c-10.3,5.8-10,33,1.1,34.9c3.1,0.4,5.8-0.6,7.9-2.5C161.4,97.5,158.5,86.4,155,75.9z"/>
	</g>
</g>
<g id="Layer_2">
	<g>
		<g>
			<path class="cat-st1" d="M109.7,76.7c-0.1,5.7-9.4,10.1-20.7,9.9c-11.3-0.2-20.5-5-20.4-10.7c0.1-5.7,9.4-10.1,20.7-9.9
				C100.7,66.3,109.8,71,109.7,76.7z"/>
			<path class="cat-st1" d="M76.1,72.4c0,0,5.8-7.4,8.3-16.1c0,0,1.5-6.5,6.2-6.1c0,0,3.2-0.9,4.9,6c0,0,3.2,14.7,6.7,16.6L76.1,72.4z"
				/>
		</g>
		<path class="cat-st0" d="M95.5,67c0,3.1-2.8,5.5-6.2,5.5c-3.4,0-6.2-2.5-6.2-5.6c0-3.1,2.8-0.3,6.2-0.3C92.8,66.7,95.5,64,95.5,67z"/>
		<g>
			<path class="cat-st1" d="M66.2,70.9c-0.1,0-0.3,0-0.4-0.1L39.6,58.4c-0.5-0.2-0.7-0.8-0.5-1.3c0.2-0.5,0.8-0.7,1.3-0.5l26.1,12.4
				c0.5,0.2,0.7,0.8,0.5,1.3C66.9,70.7,66.5,70.9,66.2,70.9z"/>
			<path class="cat-st1" d="M40.1,88.6c-0.4,0-0.7-0.2-0.9-0.6c-0.2-0.5,0-1.1,0.5-1.3l26.8-10.8c0.5-0.2,1.1,0,1.3,0.5
				c0.2,0.5,0,1.1-0.5,1.3L40.5,88.5C40.3,88.6,40.2,88.6,40.1,88.6z"/>
			<path class="cat-st1" d="M66.2,74.5C66.2,74.5,66.2,74.5,66.2,74.5l-28.9-1c-0.5,0-1-0.5-0.9-1c0-0.5,0.5-0.9,1-0.9c0,0,0,0,0,0
				l28.9,1c0.5,0,1,0.5,0.9,1C67.2,74.1,66.8,74.5,66.2,74.5z"/>
		</g>
		<g>
			<path class="cat-st1" d="M111.5,71.1c-0.4,0-0.7-0.2-0.9-0.6c-0.2-0.5,0-1.1,0.5-1.3L137.2,57c0.5-0.2,1.1,0,1.3,0.5
				c0.2,0.5,0,1.1-0.5,1.3L111.9,71C111.7,71,111.6,71.1,111.5,71.1z"/>
			<path class="cat-st1" d="M137.4,89c-0.1,0-0.2,0-0.4-0.1l-26.7-11c-0.5-0.2-0.7-0.8-0.5-1.3c0.2-0.5,0.8-0.7,1.3-0.5l26.7,11
				c0.5,0.2,0.7,0.8,0.5,1.3C138.2,88.7,137.8,89,137.4,89z"/>
			<path class="cat-st1" d="M111.4,74.7c-0.5,0-1-0.4-1-1c0-0.5,0.4-1,1-1l28.9-0.8c0,0,0,0,0,0c0.5,0,1,0.4,1,1c0,0.5-0.4,1-1,1
				L111.4,74.7C111.4,74.7,111.4,74.7,111.4,74.7z"/>
		</g>
		<g>
			<g>
				<path class="cat-st1" d="M53.3,51c0,0.1,0,0.2,0,0.3c0,7.4,5.9,13.4,13.3,13.4c7.4,0,13.4-5.9,13.4-13.3c0-0.1,0-0.2,0-0.3L53.3,51z
					"/>
			</g>
			<path class="cat-st0" d="M53.2,48.2c0.7-0.2,28.3,2.3,28.3,2.3L81,51.9l-28.8-0.8L53.2,48.2z"/>
		</g>
		<g>
			<g>
				<path class="cat-st1" d="M126.7,51.3c0,0.1,0,0.2,0,0.3c0,7.4-6,13.3-13.4,13.3c-7.4,0-13.3-6-13.3-13.4c0-0.1,0-0.2,0-0.3
					L126.7,51.3z"/>
			</g>
			<path class="cat-st0" d="M126.8,48.4c-0.7-0.2-28.3,2.1-28.3,2.1l0.5,1.5l28.8-0.6L126.8,48.4z"/>
		</g>
	</g>
	<circle class="cat-st0" cx="68.3" cy="51.8" r="4.6"/>
	<circle class="cat-st0" cx="112.1" cy="51.8" r="4.6"/>
	<path class="cat-st3" d="M83.1,79.6c0,0,6,0.5,12,1"/>
</g>
</svg>
