<svg xmlns="http://www.w3.org/2000/svg" viewBox="0 0 288 283" style="enable-background:new 0 0 288 283" xml:space="preserve"><radialGradient id="a" cx="144.543" cy="144.102" r="126.001" gradientUnits="userSpaceOnUse"><stop offset="0" style="stop-color:#fff"/><stop offset=".269" style="stop-color:#fff"/><stop offset="1" style="stop-color:#e5e6e6"/></radialGradient><circle cx="144.5" cy="144.1" r="126" style="fill:url(#a)"/><radialGradient id="b" cx="144.543" cy="144.102" r="138.5" gradientUnits="userSpaceOnUse"><stop offset="0" style="stop-color:#fff"/><stop offset=".269" style="stop-color:#fff"/><stop offset="1" style="stop-color:#e5e6e6"/></radialGradient><path d="M144.8 282.6h-.2c-3.9 0-7.9-.2-11.8-.5l.1-1c3.9.3 7.8.5 11.7.5h.2v1zm12.1-.5-.1-1c4-.3 8-.9 11.9-1.6l.2 1c-4 .7-8 1.2-12 1.6zm-36.2-1.5c-4-.7-7.9-1.6-11.8-2.6l.3-1c3.8 1 7.8 1.9 11.7 2.6l-.2 1zm59.9-2.7-.3-1c3.8-1 7.7-2.3 11.4-3.6l.3.9c-3.6 1.4-7.5 2.6-11.4 3.7zm-83.2-3.5c-3.8-1.4-7.5-2.9-11.2-4.6l.4-.9c3.6 1.7 7.3 3.2 11.1 4.6l-.3.9zm105.9-4.8-.4-.9c3.6-1.7 7.2-3.6 10.6-5.6l.5.9c-3.5 2-7.1 3.9-10.7 5.6zm-127.8-5.4c-3.5-2-6.9-4.2-10.2-6.5l.6-.8c3.3 2.3 6.7 4.4 10.1 6.4l-.5.9zm148.7-6.7-.6-.8c3.3-2.3 6.4-4.8 9.5-7.3l.6.8c-3.1 2.5-6.3 4.9-9.5 7.3zm-168.5-7.1c-3.1-2.6-6.1-5.3-8.9-8.1l.7-.7c2.8 2.8 5.8 5.5 8.9 8.1l-.7.7zm186.9-8.5-.7-.7c2.8-2.8 5.5-5.8 8.1-8.9l.8.6c-2.6 3.2-5.4 6.2-8.2 9zm-204-8.6c-2.6-3.1-5.1-6.3-7.4-9.6l.8-.6c2.3 3.3 4.8 6.4 7.3 9.5l-.7.7zm219.5-9.9-.8-.6c2.3-3.3 4.4-6.7 6.4-10.1l.9.5c-2 3.5-4.2 6.9-6.5 10.2zm-233.4-9.8c-2-3.5-3.9-7.1-5.6-10.7l.9-.4c1.7 3.6 3.6 7.2 5.6 10.6l-.9.5zm245.5-11.1-.9-.4c1.7-3.6 3.2-7.3 4.6-11.1l.9.3c-1.4 3.8-2.9 7.5-4.6 11.2zM14.5 191.8c-1.4-3.8-2.6-7.6-3.7-11.5l1-.3c1 3.8 2.3 7.7 3.6 11.4l-.9.4zm263.9-12-1-.3c1-3.8 1.9-7.8 2.6-11.7l1 .2c-.7 3.9-1.6 7.9-2.6 11.8zM8.2 168.5c-.7-3.9-1.2-8-1.6-12l1-.1c.4 4 .9 8 1.6 11.9l-1 .2zM282.5 156l-1-.1c.3-3.9.5-7.9.5-11.8v-.2h1v.2c0 4-.1 8-.5 11.9zM6 144.4v-.3c0-4 .2-8.1.5-12.1l1 .1c-.3 4-.5 8-.5 12v.3H6zM281.5 132c-.3-4-.9-8-1.6-11.9l1-.2c.7 3.9 1.2 8 1.6 12l-1 .1zM9.1 120.2l-1-.2c.7-4 1.6-7.9 2.6-11.8l1 .3c-1 3.9-1.9 7.8-2.6 11.7zm268.3-11.8c-1-3.8-2.2-7.7-3.6-11.4l.9-.3c1.4 3.8 2.6 7.6 3.6 11.5l-.9.2zM15.3 97.1l-.9-.3c1.4-3.8 2.9-7.5 4.6-11.2l.9.4c-1.7 3.6-3.2 7.3-4.6 11.1zm253.8-11.2c-1.7-3.6-3.6-7.2-5.6-10.6l.9-.5c2 3.5 3.9 7.1 5.6 10.7l-.9.4zM25.4 75.4l-.9-.5c2-3.5 4.2-6.9 6.5-10.2l.8.6c-2.2 3.2-4.4 6.6-6.4 10.1zm231.7-10.3c-2.3-3.3-4.8-6.5-7.3-9.5l.8-.6c2.6 3.1 5.1 6.3 7.4 9.6l-.9.5zM39.2 55.7l-.8-.6c2.6-3.1 5.3-6.1 8.2-8.9l.7.7c-2.8 2.8-5.5 5.8-8.1 8.8zm202.5-8.9c-2.8-2.8-5.8-5.5-8.8-8.1l.6-.8c3.1 2.6 6.1 5.3 8.9 8.2l-.7.7zm-185.6-8-.6-.8c3.1-2.6 6.3-5.1 9.6-7.4l.6.8c-3.3 2.4-6.5 4.8-9.6 7.4zm167.2-7.4c-3.3-2.3-6.7-4.5-10.1-6.4l.5-.9c3.5 2 6.9 4.2 10.2 6.5l-.6.8zM75.7 25l-.5-.9c3.5-2 7.1-3.9 10.7-5.6l.4.9c-3.5 1.8-7.1 3.6-10.6 5.6zm126.9-5.6c-3.6-1.7-7.3-3.2-11.1-4.6l.3-.9c3.8 1.4 7.5 2.9 11.2 4.6l-.4.9zM97.4 14.9l-.3-.9c3.8-1.4 7.6-2.6 11.5-3.6l.3 1c-3.9.9-7.7 2.1-11.5 3.5zm82.6-3.7c-3.8-1-7.8-1.9-11.7-2.6l.2-1c4 .7 7.9 1.6 11.8 2.6l-.3 1zm-59.4-2.5-.2-1c3.9-.7 8-1.2 12-1.6l.1 1c-4 .4-8 .9-11.9 1.6zm35.8-1.6c-3.9-.3-7.9-.5-11.9-.5l-.1-.7v-.3c4 0 8 .2 12 .5v1z" style="fill:url(#b)"/><path d="m73.2 158.2.5 12c0 2.2-.7 3.4-2 3.4l-1.7-1.3c.5-5.4.8-11.1.8-17.1 0-6 .2-12.7.6-20.3.4-7.5.6-13.2.6-16.9 0-.5.2-.9.7-1.2.5-.3 1.3-.4 2.3-.4s2.9.2 5.4.6c2.6.4 3.8 1 3.8 1.8 0 1-1 1.4-3 1.4-1-.5-2.2-.8-3.4-.8-1.3 0-2 0-2.2.1-.2.1-.3.1-.4.2-.1.1-.1.3-.2.6l-.3.9-.8 17.7v3c0 .2.5.3 1.4.3 2.8-.1 4.2.4 4.2 1.3 0 .5-.2.8-.7 1.1-.4.3-.9.5-1.4.5l-2.8-.5c-1 0-1.5 1.4-1.5 4.1v9.5zm-2.6-27.4c0 .1 0 .2-.1.2s-.1 0-.1-.1 0-.1.2-.1zM91.8 119.5c0-2.1.6-3.2 1.8-3.2 2.7 0 5 .7 6.8 2.1 1.8 1.4 2.7 3.4 2.7 6.1v6.1c0 2.2-1.1 5.3-3.3 9.3-.7 1.3-1.1 2.1-1.1 2.2 0 .1 1.1 4.6 3.2 13.3 2.1 8.7 3.2 13.2 3.3 13.5.1.3.4.8.8 1.7s.7 1.6.7 2.3c0 .6-.3.9-.9.9l-1.2-.4c-1.3-1.5-2.7-6.9-4.3-16.4-1.5-9.1-2.8-13.7-3.9-13.7H96c-1.2 0-1.8.4-1.8 1.2 0 3.1.2 8.2.5 15.3.4 7.1.7 11.1.9 12l-.6 1.4h-1.2l-.6-.7c-1-24.3-1.4-42-1.4-53zm2.4 1.2.3 20.3.2.2c1.1 0 2-.6 2.9-1.7.8-1.1 1.5-2.5 1.9-4 .9-3.3 1.4-5.8 1.4-7.5 0-1.7-.1-3-.2-3.8-.1-.9-.3-1.8-.7-2.7-.7-2-2.3-3-4.8-3-.3 0-.6.3-.7.8-.3.5-.3 1-.3 1.4zM127.6 171.7l-2.8-.3c-.4 0-1 .2-1.6.5-.6.3-1.3.5-2.2.5-.8 0-1.4-.3-1.6-.8l-1.4.1c-1.2 0-2-.3-2.3-.9 0-.4.2-.6.5-.9.3-.2.5-.4.6-.6h2.4l.3-.3.3-1.8-.6-18.4.4-19.6c0-3.8-.1-7-.4-9.7-.5-.2-1.4-.2-2.5-.2l-2 .2c-1.1 0-1.6-.5-1.6-1.4 0-.2.3-.5.8-.7.5-.2.9-.3 1.3-.3 7.8 0 11.7.8 11.7 2.5 0 .2-.1.4-.2.7l-1.9.2c-.4-.3-1.2-.5-2.4-.5l-.4.2c.2.5.2 2 .2 4.5l-.2 20 .6 18.4-.1 2.6c0 1.3.1 2.1.2 2.3l-.1.2c0 .5.6.8 1.8.8l2.5-.1c1.7 0 2.5.4 2.5 1.2 0 .5-.2.9-.5 1.2-.4.2-.8.4-1.3.4zM137.2 171.7l.1-2.1-.3-.3c.4-1.1.6-2.3.6-3.4l-.4-11.1.6-25.3-.3-10c0-1.6.8-2.4 2.4-2.4.6 0 1.1.2 1.4.5.2.1 1 .2 2.4.3 3.4.4 5.2 1.1 5.3 2.1 0 .4-.5 1-1.6 1.6-3.1-1-5.4-1.5-6.8-1.6l-.4.5c.1.8.1 2 .1 3.6l-.3 13c0 1.6.4 2.3 1.2 2.3l2.8-.2c2.1 0 3.2.5 3.3 1.5 0 .6-.1 1.1-.4 1.5-.3.4-.8.7-1.5.7s-1.3-.2-1.6-.7l-2.7-.4h-.4l-.4.4v.2c.1 1.4.2 3.7.2 6.6l-.2 11.9c0 5.6.4 8.7 1.1 9.3.5.4 1.4.6 2.7.6l3.1-.2c1.6 0 2.5.4 2.5 1.1 0 1-1.2 1.5-3.7 1.5h-6.9c-1.3.3-1.8-.3-1.9-1.5zM180.8 121.2l-.2-2.1c0-1.2.4-1.8 1.2-1.8.5 0 1 .3 1.3.8.3.5.5 1.1.5 1.6v5.6l-.5.7c0 4.4-.3 12.8-.9 25.4-.6 12.6-1.2 19.4-1.8 20.6-.1 0-.5.1-1.2.3-.7.2-1.1.3-1.4.3s-.5-.2-.7-.6c-.2-.4-.4-.9-.5-1.5-.1-.6-.2-1-.3-1.2l.1-.2c-.4-2.3-1.1-5-2.2-8s-1.8-5-2.2-6c-.2-.2-.9-2.3-2.3-6.3-5-15.6-8.2-24-9.5-25.3-.4 1.7-.7 3.7-.7 5.9l.2 6.6-.2 4.1c0 .6.1 2.6.3 5.9h-.2c0 9.3.2 14.5.6 15.5v7.5c.2.4.3.9.3 1.5 0 1.3-.5 2-1.6 2-1.2 0-1.8-1.5-1.8-4.5l.3-5.5-.5-24.2.5-14.9V122c0-.7 0-1.2.1-1.5 0-.2.1-.5.1-.9 0-.3.1-.6.2-.8.1-.2.2-.4.3-.7.2-.5.5-.9.9-1.2l.2.3.8-.2c.6.2 1 .7 1.1 1.3 0 .1 0 .2.1.5s.1.4.1.4c1 4 3 9.6 6 16.7 3.1 7.1 4.9 11.7 5.6 13.8.7 2 1.2 4.2 1.8 6.5 1.1 5 2.4 8.7 3.8 11l.2-.2c1.5-12.2 2.1-27.5 2.1-45.8zm-1.7 51.2s.1.1 0 0zM210.2 142.9c0 2.2.1 3.6.4 4.1-.4 1.8-.7 4.3-1 7.4-.3 3.1-.6 5.5-1 7.1-.4 1.6-.9 3-1.5 4.2-1.5 2.8-3.9 5.1-7.3 7H194c-.5 0-.7-.8-.7-2.3-.2-4.3-.3-9.2-.3-14.6l.2-19.9c0-5.8-.1-11.1-.3-15.8-.5-.4-.7-.9-.7-1.4 0-.6.2-1.1.7-1.5.5-.4.9-.6 1.3-.6s.8.2 1.3.7.8.7 1.1.9c.2.1.8.3 1.8.4.9.2 1.7.4 2.3.7.6.3 1.6 1.1 3 2.4 1.4 1.3 2.3 2.2 2.8 2.5l-.1.2c.1.4.5 1.1 1.2 2.2.8 1.1 1.3 1.9 1.5 2.4.9 2.4 1.4 5.8 1.4 10l-.3 3.9zm-2.4 5.2-.1-3-.4-8.4c-.1-3.2-1.1-6.5-2.9-10.1-.8-1.7-2-3.1-3.4-4.2s-2.9-1.7-4.5-1.7c-.6 0-.9 5.6-.9 16.8 0 11.2.3 21.2.9 30.1l-.1 1.6.3.2.2 1.1h2.6c.3-.5.7-.9 1.2-1.3s.9-.7 1-.8c4.1-3.7 6.1-10.5 6.1-20.3zM227.4 118.8l-1.8-.5c-.9 0-1.6.3-2.3 1-.7.7-1.1 1.6-1.5 2.6-.7 2-1 3.6-1 4.8 0 1.1 0 2 .1 2.5s.2 1.1.3 1.7c.2.7.3 1.1.3 1.4.1.3.2.8.5 1.7.3.9.4 1.3.4 1.5l.6 1.5c.5 1 1.3 2.2 2.1 3.7.9 1.5 1.5 2.6 2 3.4l1.5 3c.6 1.2 1 2.4 1.2 3.4.7 2.6 1 4.9 1 7 0 2.1-.1 3.7-.2 5-.2 1.2-.5 2.5-.9 3.8s-1 2.5-1.7 3.4c-1.5 2.3-3.6 3.4-6.3 3.4l-.4.2c-1.6-.3-2.5-1-2.7-2.1l.4-.7 3 .6c1.3 0 2.4-.5 3.3-1.5.9-1 1.6-2.3 2.1-3.8.8-2.8 1.2-5.5 1.2-7.9 0-2.4-.3-4.7-1-6.8-.7-2.1-1.5-4.1-2.5-5.9-1-1.8-2-3.6-3-5.3-2.4-4.3-3.6-8.5-3.6-12.7 0-2.1.4-4.2 1.1-6.1 1.4-3.6 3.2-5.4 5.5-5.4.6 0 1.3.2 2.1.7.8.5 1.1 1 1.1 1.6.2.6-.1.8-.9.8zm.6-.3c.1 0 .1 0 0 0z"/></svg>