<svg version="1.1" id="Layer_1" xmlns="http://www.w3.org/2000/svg" x="0" y="0" viewBox="0 0 480 640" style="enable-background:new 0 0 480 640" xml:space="preserve"><style>.girl-st0{fill:#333333}.girl-st1{fill:#e31f29}.girl-st2{fill:#d5380a}.girl-st3{fill:#ba291f}.girl-st4{fill:#fcd0a3}.girl-st7{fill:#19120f}.girl-st9{fill:#722c01}</style><path class="girl-st0" d="M109.5 546.8c3 15 5.9 31.2 7.1 47.4 1.5 5.8 6.2 17.4 1.1 23.1-6.9 6.7-25.2 1.6-28.8 13.1 16.6 5 38.4 3.3 55.2 3.8 7.4-27.4-1.9-56.5 5.5-83.9-9.9-3.7-41.7-8-40.1-5.7"/><path class="girl-st1" d="M118 616.9c-.1.1-.2.2-.3.4-6.9 6.7-25.2 1.6-28.8 13.1 16.6 5 38.4 3.3 55.2 3.8 1.4-5.2 2.2-6.8 2.7-12.2v-.2c-10.2.5-21-1.1-28.8-4.9z"/><path class="girl-st0" d="M191.3 551.3c-3.7 14.9-7.5 30.9-9.6 47-1.8 5.7-7.2 17.1-2.3 23 6.5 7.1 25.1 3 28.1 14.6-16.9 4.2-38.6 1.3-55.3.8-6-27.8 4.8-56.3-1.2-84.1 10.1-3.2 42-5.8 40.3-3.5"/><path class="girl-st1" d="M179.2 620.8c.1.1.2.3.2.4 6.5 7.1 25.1 3 28.1 14.6-16.9 4.2-38.6 1.3-55.3.8-1.1-5.3-1.9-6.9-2-12.3v-.2c10.1 1.2 20.9.1 29-3.3z"/><path class="girl-st2" d="M391.4 193.4c-26.8-20.1-61-8.8-80.4-55.7C295.2 81.5 266.8 33.4 189.1 6.5c-30.4-9-75.9-3.5-99.9 7.1C3 70.5 27.9 74.7 9.4 144.2c-7.3 25-6.9 59.4 9.5 87.7 13.1 22.6 76 59.6 99.5 74 63.8 37.7 110.6 77.8 192.7 51.7 78.8-26.2 110.8-95.4 162.9-144.5-44.5 10.2-45.7 6.2-82.6-19.7z"/><path class="girl-st3" d="M234.7 468.4c1.8-34.3-11.7-85.8-16.2-105.5-7.6-31.9-19.8-80.5-61.1-83l.4.4c-72 4.7-76.7 89.7-83.1 152.9-.2 8-7 20.9-4.3 35.6 38.4 4.1 113.2 18.4 164.3-.4z"/><path class="girl-st3" d="M76.5 432s-18.8 30.1-5.6 120.3c0 0 55.1 37.8 164.6 8.1 0 0 15.8-101.8-7.4-141.1-25.3-43-151.6 12.7-151.6 12.7z"/><path class="girl-st4" d="M81.8 414.2v-.8c-1.9 16.3 29.7 26.7 37.7 5.7 6.5-18.6-35.8-19.5-37.7-4.9z"/><path class="girl-st3" d="M110.2 306.3s-78.4 62.3-58.8 101.6c0 0 13 27.7 44.9 21.5l5.1-25s-26.9-12-8.3-34.5c18.5-22.5 17.1-63.6 17.1-63.6z"/><path class="girl-st4" d="M220.6 417.2v-.8c1.2 16.3-30.8 25.4-37.9 4.1-5.6-18.9 36.7-18 37.9-3.3z"/><path class="girl-st3" d="M196.9 308.1s75.7 65.6 54.5 104c0 0-14.2 27.1-45.8 19.6l-4-25.2s27.4-10.8 9.8-34.1c-17.7-23.2-14.5-64.3-14.5-64.3z"/><path d="M211.3 336c-8.6-27-23.2-54.2-53.9-56.1l.4.4c-39 2.5-58.3 28.6-68.7 62 15.7 4.7 40.7 4.2 55.7 7.3 27.1 3.6 33.4-5.4 57.7-12.5 3-.7 5.9-1 8.8-1.1z" style="fill:#fff"/><g><path class="girl-st4" d="M132.2 258.5c8.3 17.7-6.3 40.5 14 55.3 61.7 8.8 8.8-108-11.9-55.3"/></g><path class="girl-st4" d="M274.2 171c-1.4 67.1-57.4 120.3-124.9 118.8-67.6-1.5-121.2-57-119.8-124.1 1.4-67 57.4-120.2 125-118.7 67.5 1.4 121.2 57 119.7 124z"/><g><path class="girl-st2" d="M66 50.6c6.3 25.3 22.7 50.8 53.1 62.6-3.2-11.2 4-27.8.8-39.1l3.4.1c13.3 14.3 33.5 23.1 53.7 31.9.1-5.6.2-11.2.4-16.8 33.8 9.1 64.1 23.7 101.4 30.1-26.1-50.8-42.8-65.2-107.2-77.7-33.9-6.3-98.2-18.9-115.9 11.5"/></g><g><path d="M117.3 204.3s31.6 58.3 68.1 2.2c0 0 2.9 1.8-39.7 8.9 0-.1-15.6-2.2-28.4-11.1z" style="fill:#95060a"/><path class="girl-st7" d="M116.7 175.9c-.8 8.3-7.5 14.5-15 13.8-7.5-.7-13-8-12.3-16.3.7-8.3 7.5-14.5 15-13.8 7.5.7 13 8 12.3 16.3zM222.5 174.4c-.8 8.3-7.5 14.5-15 13.8-7.5-.7-13-8-12.3-16.3.8-8.3 7.5-14.5 15-13.8 7.5.7 13 8 12.3 16.3z"/><path d="M165.1 177.2c-.3 3.6-6.4 6-13.6 5.4-7.2-.7-12.7-4.1-12.4-7.7.3-3.6 6.4-6 13.6-5.4 7.2.6 12.7 4 12.4 7.7z" style="fill:#f58569"/><path class="girl-st9" d="M194.6 125.6s31.8-3.7 49.7 15.1l4.8-10.1s-27.6-13.1-53.9-12.9l-.6 7.9zM115 125.8s-31.8-3-49.4 16.2l-5.1-10s27.4-13.7 53.6-14l.9 7.8z"/></g></svg>