<svg version="1.1" id="Layer_1" xmlns="http://www.w3.org/2000/svg" x="0" y="0" viewBox="0 0 480 640" style="enable-background:new 0 0 480 640" xml:space="preserve"><style>.girl3-st0{fill:#fcd0a3}.girl3-st2{fill:#1f1a18}.girl3-st4{fill:#742a2a}.girl3-st6{fill:#19120f}.girl3-st8{fill:#722c01}</style><path class="girl3-st0" d="m202.3 383.4-43.3-7.8-35-27.6s3.4-16.3-.9-12.7c-4.3 3.6-3.2 7.1-3.2 7.1s-8.8-12.1-10.7-10.7c-2 1.4-.6 4.8 2.7 8.8 0 0-6.7-7.3-9.1-4.4 0 0-2.4 1.9 5.3 8.5 0 0-8-5.5-9.7-3.5 0 0-.5 3.1 5.7 7 0 0-4.9-1.4-6.6-.1 0 0-1.8 3 5.7 4.1 0 0 6.1 5.2 13.6 8.3l38.4 39.5 41.5 11.3 5.6-27.8zM280.3 373.8l43.3 7.3 41.3-14.3s1.6-16.6 4.6-11.8c3 4.8 1 7.8 1 7.8s11.8-8.5 13.3-6.5-.8 4.8-5.1 7.4c0 0 8.5-4.6 9.9-1.1 0 0 1.7 2.6-7.5 6.3 0 0 9.2-2.5 10.3-.1 0 0-.4 3.2-7.5 4.7 0 0 5.1.3 6.3 2.1 0 0 .8 3.4-6.6 1.9 0 0-7.3 2.9-15.3 3.3l-48 24.4-42.7-3.4 2.7-28z"/><path d="M230.8 363.2s-31.7 2-41.2 19.9c0 0 4.9 58.5 3.7 74.2 0 0 19.8 24.8 81.3 8.4 0 0 18.5-8.8 23.7-12.2 0 0-7.4-73.1-14.4-82.1 0 .1-22.4-10.2-53.1-8.2z" style="fill:#00100a"/><path class="girl3-st0" d="M210.6 498.9s-1.6 54.6 3.3 72l-27.2 25.3s37.3-10.2 46-7c0 0-4.1-67.4 2.9-89.6l-25-.7z"/><path class="girl3-st2" d="m238.5 564.9-33.9-4.4 1.1 7.4s-32.1-1.7-31.5 30.1l65.7-4.6-1.4-28.5z"/><path class="girl3-st0" d="M274.4 499.4s.4 54.6-4.9 72l26.6 25.7s-37.1-10.8-45.8-7.7c0 0 5.6-67.3-.8-89.6l24.9-.4z"/><path class="girl3-st2" d="m244.9 564.9 34-3.9-1.3 7.4s32.1-1.2 30.8 30.6l-65.6-5.5 2.1-28.6z"/><path class="girl3-st0" d="m224.6 340-1.3-1.5c2.6 13.5 3.8 27 6.4 39 6.8 1.5 13.6 1.6 21.8 1.7.1-12 .3-25.4.4-37.4-9.6-4.7-19.2 1.2-27.3-1.8z"/><path class="girl3-st0" d="M235.7 367.8s-15.5 1.4-20.4 4.3c0 0 5.6 9 27.4 22.7 0 0 22.8-8.1 27.9-21.5 0 0-9.7-6.1-34.9-5.5z"/><path d="M193.4 454 175 529.3l129.4-1.3-6.1-74.5c0 .1-75.8 16.4-104.9.5z" style="fill:#e63226"/><g><path class="girl3-st4" d="M200.9 79.2h-1.1C130 110.1 64.9 195 105.7 308.3c9.1 25.2 11.3 22.5 32.7 31.7 19.8 6.9 37.9 16 57.7 20.6 44.5 11.6 98.2-1.5 143-12.4 97.8-23.9 75.6-309.4-138.2-269z"/><path class="girl3-st4" d="M240.3 91.5c-9-7.6-16.8-21.1-21.3-33.1 9.1.1 15.8 10.6 21.4 19.6-3.3-13.5-7.6-36-.6-47.9 3.3 9 5.5 21 5.3 33 3.6-13.5 9.4-25.4 17.5-35.8 6.7 15-7.5 55.3-19 64.2"/><path class="girl3-st0" d="M354.8 250.1c-.8 66.7-51.4 120.4-113.2 120-61.8-.5-111.2-54.9-110.5-121.7.8-66.7 51.4-120.4 113.2-120 61.8.5 111.3 55 110.5 121.7z"/><path d="M211.6 285.5s29.4 57.5 62.3 1.2c0 0 2.6 1.8-36.2 9.4 0-.1-14.3-1.9-26.1-10.6z" style="fill:#95060a"/><path class="girl3-st6" d="M210.8 257.3c-.6 8.3-6.7 14.5-13.6 14-6.9-.6-12-7.8-11.4-16.1.6-8.3 6.7-14.5 13.6-14 7 .6 12.1 7.8 11.4 16.1zM307.5 254.3c-.6 8.3-6.7 14.5-13.6 14-6.9-.6-12-7.8-11.4-16.1.6-8.3 6.7-14.5 13.6-14 7 .6 12 7.8 11.4 16.1z"/><path d="M255.1 257.8c-.3 3.6-5.8 6.1-12.4 5.5-6.6-.5-11.7-3.9-11.4-7.5.3-3.6 5.8-6.1 12.4-5.5 6.6.6 11.7 3.9 11.4 7.5z" style="fill:#f58569"/><path class="girl3-st8" d="M281.6 206.1s29-4.1 45.6 14.3l4.3-10.1s-25.4-12.6-49.3-12l-.6 7.8zM209 207.5s-29.1-2.5-45 16.8l-4.7-9.9s24.9-14 48.9-14.7l.8 7.8z"/><g><path class="girl3-st4" d="M138 173.1c37.4 18.3 77.2 17.1 115.9 18.8 26.2 1.7 80.8 5.1 104.5 24.8-7.5-40.5-21.4-123-123.9-123.7-28.6-.2-101.7 27.7-90.9 80.2"/></g><g><path class="girl3-st4" d="M10 140.5c12.2 10.2 30.6 20.5 45.9 27.4-18.4-3.5-24.7 3.2-40.2 13.2 9.2.1 18.4 6.9 27.6 7-18.6 6.6-27.9 16.7-40.4 30.1 30.8 3.6 86.2 4 98.9-33.1L114 192c-21-34-63.6-78.3-104-51.5zM468.3 204.5c-9.2-.1-18.4-6.9-27.6-7 18.6-6.6 27.9-16.7 40.4-30.1-30.8-3.6-86.2-4-98.9 33.1l-12.2-6.9c21.2 34 63.8 78.2 104.1 51.5-12.2-10.2-30.6-20.5-45.9-27.4 18.3 3.6 24.5-3.1 40.1-13.2z"/></g></g></svg>